<svg xmlns="http://www.w3.org/2000/svg" viewBox="0 0 200 100">
  <defs>
    <linearGradient id="night" x1="0" y1="0" x2="0" y2="1">
      <stop offset="0%" stop-color="#111" />
      <stop offset="100%" stop-color="#000" />
    </linearGradient>
    <pattern id="windows" width="6" height="8" patternUnits="userSpaceOnUse">
      <rect width="3" height="3" fill="#ffd166" />
    </pattern>
  </defs>
  <rect width="200" height="100" fill="url(#night)" />
  <g stroke="#000" stroke-width="2">
    <rect x="5" y="40" width="25" height="60" fill="#4d4d4d" />
    <rect x="40" y="25" width="35" height="75" fill="#595959" />
    <polygon points="80,55 80,100 110,100 110,45 95,45 95,35 85,35 85,45" fill="#404040" />
    <rect x="115" y="30" width="40" height="70" fill="#4a4a4a" />
    <rect x="160" y="45" width="30" height="55" fill="#555" />
  </g>
  <g fill="url(#windows)">
    <rect x="5" y="40" width="25" height="60" />
    <rect x="40" y="25" width="35" height="75" />
    <rect x="80" y="45" width="30" height="55" />
    <rect x="115" y="30" width="40" height="70" />
    <rect x="160" y="45" width="30" height="55" />
  </g>
</svg>
